<?xml version="1.0" encoding="UTF-8"?>
<svg id="_圖層_1" data-name="圖層 1" xmlns="http://www.w3.org/2000/svg" viewBox="0 0 305.45 108.76">
  <defs>
    <style>
      .cls-1 {
        fill: #f5f5f5;
      }

      .cls-2 {
        fill: #f5f5f5;
      }
    </style>
  </defs>
  <path class="cls-2" d="M171.26,65.59h20.59v-1.99c0-8.61-6.98-15.59-15.59-15.59h-25.12c-2.1,0-5.59,.42-7.42,1.18,11.36,4.15,18,15.02,18,27.81h0c0,13.38-7.39,24.68-19.56,28.36,2.23,1.22,6.26,1.92,8.98,1.92h25.12c8.61,0,15.59-6.98,15.59-15.59v-.48h-20.59c-1.38,0-2.51-1.13-2.51-2.51s1.13-2.51,2.51-2.51h20.59v-15.57h-20.59c-1.38,0-2.51-1.13-2.51-2.51s1.13-2.51,2.51-2.51Z"/>
  <path class="cls-1" d="M103.04,11.49l-6.12-8.06c-2.9-3.82-8.34-4.56-12.16-1.66L35.77,38.97c-5.87,4.46-10.91,3.92-15.11-1.62-.26-.34-.51-.76-.76-1.24-2.49-4.9-8.7-6.5-13.08-3.17l-3.36,2.55c-2.96,2.25-4.25,6.17-2.98,9.66,1.41,3.89,3.33,7.44,5.77,10.65,4.48,5.9,9.64,9.85,15.46,11.91v28.57c0,6.89,5.59,12.48,12.48,12.48h2.88c6.89,0,12.48-5.59,12.48-12.48v-29.86c0-1.34,.24-2.67,.66-3.93,.06-.05,.12-.08,.18-.13L101.37,23.65c3.82-2.9,4.56-8.34,1.66-12.16Z"/>
  <circle class="cls-2" cx="73.57" cy="93.2" r="15.56"/>
  <g>
    <path class="cls-1" d="M275.82,106.54c-15.93,0-28.89-12.96-28.89-28.89s12.96-28.89,28.89-28.89c14.88,0,27.36,11.42,28.76,26.14h-25.99c-.09,0-.17,0-.25,.02-.1-.01-.18-.02-.25-.02-1.65,0-3,1.35-3,3v10.55c0,1.65,1.35,3,3,3s3-1.35,3-3v-7.55h23.63v.68c0,13.77-11.2,24.97-24.96,24.97h-3.93Z"/>
    <path class="cls-1" d="M275.82,49.49c14.23,0,26.2,10.71,27.93,24.66h-25.17c-.08,0-.16,0-.25,.01-.08,0-.17-.01-.25-.01-2.06,0-3.74,1.68-3.74,3.74v10.55c0,2.06,1.68,3.74,3.74,3.74s3.74-1.68,3.74-3.74v-6.81h22.15c-.04,13.33-10.89,24.16-24.22,24.16h-3.93c-15.52,0-28.15-12.63-28.15-28.15s12.63-28.15,28.15-28.15m0-1.48h0c-16.37,0-29.63,13.27-29.63,29.63h0c0,16.37,13.27,29.63,29.63,29.63h3.93c14.2,0,25.71-11.51,25.71-25.71v-1.42h-25.11v8.29c0,1.24-1.02,2.26-2.26,2.26s-2.26-1.02-2.26-2.26v-10.55c0-1.24,1.02-2.26,2.26-2.26,.09,0,.17,.02,.25,.03,.08,0,.17-.03,.25-.03h26.8c-1.03-15.43-13.87-27.62-29.56-27.62h0Z"/>
  </g>
  <path class="cls-2" d="M243.22,77.65h0c0-8.17,3.31-15.57,8.66-20.93-2.25-5.12-7.35-8.71-13.31-8.71h0c-.26,0-.47,.21-.47,.47l.17,18.54c.04,4.31-5.23,6.42-8.18,3.28l-20.29-21.64c-.13-.14-.25-.29-.36-.45-.09-.13-.23-.21-.39-.21h-.7c-8.02,0-14.53,6.5-14.53,14.53v30.21c0,8.02,6.5,14.53,14.53,14.53,.26,0,.47-.21,.47-.47l-.17-18.04c-.04-4.31,5.23-6.42,8.18-3.28l20.29,21.64s.08,.1,.12,.15h1.33c5.95,0,11.06-3.58,13.31-8.71-5.35-5.36-8.66-12.76-8.66-20.93Z"/>
  <g>
    <path class="cls-1" d="M115.59,105.89c-8.46,0-15.35-6.89-15.35-15.35v-27.09c0-8.46,6.88-15.35,15.35-15.35h13.54c15.93,0,28.89,12.96,28.89,28.89s-12.96,28.89-28.89,28.89h-13.54Z"/>
    <path class="cls-1" d="M129.13,48.85c15.52,0,28.15,12.63,28.15,28.15s-12.63,28.15-28.15,28.15h-13.54c-8.05,0-14.61-6.55-14.61-14.61v-27.09c0-8.05,6.55-14.61,14.61-14.61h13.54m0-1.48h-13.54c-8.89,0-16.09,7.2-16.09,16.09v27.09c0,8.89,7.2,16.09,16.09,16.09h13.54c16.37,0,29.63-13.27,29.63-29.63h0c0-16.37-13.27-29.63-29.63-29.63h0Z"/>
  </g>
</svg>